<?xml version="1.0" standalone="no"?>
<!DOCTYPE svg PUBLIC "-//W3C//DTD SVG 20010904//EN"
 "http://www.w3.org/TR/2001/REC-SVG-20010904/DTD/svg10.dtd">
<svg version="1.0" xmlns="http://www.w3.org/2000/svg"
 width="1754.000000pt" height="126.000000pt" viewBox="0 0 1754.000000 126.000000"
 preserveAspectRatio="xMidYMid meet">
<metadata>
Created by potrace 1.16, written by Peter Selinger 2001-2019
</metadata>
<g transform="translate(0.000000,126.000000) scale(0.100000,-0.100000)"
fill="#000000" stroke="none">
<path d="M3560 1184 c-223 -40 -517 -129 -705 -214 -22 -10 -82 -34 -133 -54
-52 -20 -108 -42 -125 -50 -18 -8 -99 -43 -182 -77 l-150 -62 -180 -8 c-315
-13 -576 -45 -975 -119 -343 -64 -628 -192 -900 -404 -77 -59 -180 -156 -180
-168 0 -4 25 -8 55 -8 52 0 58 3 122 57 162 137 432 296 600 352 156 52 395
101 733 150 203 30 335 42 550 51 l195 7 84 37 c161 70 736 298 822 326 107
35 307 83 419 101 253 41 910 -12 1405 -113 55 -11 118 -24 140 -28 82 -17
473 -120 550 -144 44 -14 83 -26 88 -26 4 0 45 38 91 83 l82 84 95 6 c121 9
249 -1 249 -19 0 -7 -29 -72 -65 -145 -52 -106 -65 -141 -65 -179 0 -63 30
-106 97 -139 29 -15 57 -31 63 -37 6 -6 15 -51 20 -100 11 -98 47 -279 62
-307 10 -19 72 -24 83 -7 4 6 -5 59 -18 118 -14 59 -31 154 -37 212 -7 59 -19
117 -28 132 -9 16 -40 39 -72 53 -62 29 -80 48 -80 82 0 13 32 86 70 163 79
157 84 187 42 230 -25 25 -37 28 -121 35 -51 4 -144 4 -206 0 l-113 -7 -65
-54 c-35 -29 -67 -61 -71 -69 -12 -32 -46 -32 -150 -2 -168 48 -224 63 -386
101 -254 60 -580 116 -820 141 -85 9 -191 20 -235 25 -117 15 -564 10 -655 -6z"/>
<path d="M14698 940 c-55 -30 -62 -50 -68 -194 l-5 -129 -30 -17 c-27 -15 -30
-22 -30 -65 0 -43 3 -50 30 -65 l30 -17 3 -208 c2 -152 6 -211 15 -217 21 -13
124 -9 136 5 7 9 12 89 13 223 l3 209 30 5 c29 5 30 6 30 64 0 59 0 60 -33 68
l-33 9 3 87 3 87 33 15 32 15 -2 70 -3 70 -60 2 c-44 2 -70 -3 -97 -17z"/>
<path d="M11797 944 c-4 -4 -7 -211 -7 -460 0 -403 2 -453 16 -458 23 -9 117
-7 132 2 10 7 12 106 10 463 l-3 454 -70 3 c-39 1 -74 0 -78 -4z"/>
<path d="M12737 944 c-4 -4 -7 -211 -7 -460 0 -508 -8 -464 80 -464 85 0 80
-12 80 205 0 173 2 194 18 208 22 20 46 22 61 4 7 -9 12 -86 13 -213 l3 -199
54 -3 c30 -2 66 0 79 3 l23 6 -3 257 c-3 275 -6 289 -55 311 -54 25 -122 6
-162 -45 -12 -15 -22 -25 -23 -23 -1 2 -4 96 -7 209 l-6 205 -70 3 c-39 1 -74
0 -78 -4z"/>
<path d="M15447 944 c-4 -4 -7 -211 -7 -460 0 -403 2 -453 16 -458 23 -9 117
-7 132 2 10 7 12 106 10 463 l-3 454 -70 3 c-39 1 -74 0 -78 -4z"/>
<path d="M16847 944 c-4 -4 -7 -90 -7 -190 0 -114 -4 -185 -10 -189 -6 -4 -24
5 -41 19 -58 49 -136 28 -176 -47 -59 -110 -58 -330 1 -445 36 -69 119 -93
178 -51 l29 21 20 -21 c16 -17 31 -21 77 -21 31 0 63 4 70 8 10 7 12 106 10
463 l-3 454 -70 3 c-39 1 -74 0 -78 -4z m-17 -519 c20 -39 19 -188 -1 -230
-16 -33 -49 -44 -68 -21 -19 23 -30 129 -21 197 5 33 14 67 21 75 19 23 52 12
69 -21z"/>
<path d="M12115 869 c-62 -36 -74 -111 -26 -160 61 -61 170 -17 171 68 0 66
-90 123 -145 92z"/>
<path d="M7752 758 c-6 -8 -12 -42 -14 -77 -2 -52 -7 -66 -23 -75 -29 -16 -34
-27 -34 -66 1 -54 8 -67 34 -74 l25 -6 0 -214 c0 -241 -5 -226 80 -226 85 0
80 -14 80 220 0 217 1 223 45 232 17 3 20 11 20 63 0 52 -3 60 -20 63 -38 7
-45 22 -45 93 l0 69 -54 0 c-30 0 -61 2 -69 5 -7 3 -19 0 -25 -7z"/>
<path d="M10040 761 l-65 -6 -3 -71 c-3 -65 -5 -72 -27 -82 -22 -10 -25 -18
-25 -67 0 -50 2 -56 25 -65 l25 -10 0 -214 c0 -241 -6 -226 83 -226 85 0 81
-9 87 232 l5 212 25 6 c23 5 25 11 28 63 3 56 2 58 -27 68 -30 11 -31 13 -31
74 0 44 -5 68 -16 79 -8 9 -16 15 -17 14 -1 -1 -31 -4 -67 -7z"/>
<path d="M13338 762 l-68 -3 0 -75 c0 -70 -1 -75 -25 -84 -23 -9 -25 -15 -25
-65 0 -50 2 -56 25 -65 l25 -10 0 -214 c0 -241 -6 -226 83 -226 86 0 82 -8 79
223 -3 215 -2 220 43 229 17 3 20 11 20 63 0 55 -2 60 -23 63 -29 4 -44 34
-41 85 4 86 7 83 -93 79z"/>
<path d="M11004 601 c-18 -11 -35 -24 -38 -30 -11 -18 -34 -12 -41 9 -6 19
-14 21 -78 18 l-72 -3 -3 -279 c-2 -217 1 -281 10 -288 19 -11 106 -10 129 2
18 10 19 23 19 185 0 104 4 184 11 198 12 27 58 57 86 57 31 0 43 21 43 75 0
45 -12 75 -29 75 -4 0 -20 -9 -37 -19z"/>
<path d="M6730 572 c-56 -56 -73 -123 -68 -276 3 -105 7 -128 29 -177 43 -92
116 -124 184 -79 35 23 55 26 55 6 0 -8 7 -17 16 -20 28 -11 120 -6 132 6 9 9
12 84 12 278 0 194 -3 269 -12 278 -7 7 -39 12 -74 12 -51 0 -64 -4 -75 -20
-14 -21 -14 -21 -48 5 -54 39 -104 35 -151 -13z m189 -146 c18 -39 19 -192 0
-231 -20 -41 -58 -41 -79 0 -22 46 -21 202 3 239 23 35 57 32 76 -8z"/>
<path d="M8155 594 c-42 -23 -74 -54 -92 -88 -48 -92 -56 -219 -21 -329 34
-108 98 -157 202 -157 149 1 225 117 214 326 -9 174 -74 256 -207 261 -47 2
-75 -1 -96 -13z m125 -169 c20 -41 20 -189 0 -230 -22 -43 -54 -45 -75 -4 -21
40 -18 226 4 253 21 25 53 16 71 -19z"/>
<path d="M8674 596 c-81 -36 -139 -168 -133 -308 3 -70 9 -94 36 -148 40 -80
82 -112 158 -118 30 -2 66 -2 80 2 24 6 25 10 25 71 l0 65 -31 0 c-70 0 -102
49 -102 155 0 105 34 160 99 158 l34 -1 0 63 c0 48 -4 64 -16 69 -28 11 -118
6 -150 -8z"/>
<path d="M9045 593 c-50 -26 -76 -55 -104 -113 -23 -50 -25 -67 -26 -175 0
-105 3 -126 24 -167 40 -82 115 -123 211 -116 90 6 151 61 154 135 1 37 0 38
-38 41 -50 4 -86 -5 -86 -22 0 -24 -37 -49 -64 -42 -32 8 -47 35 -49 89 l-2
42 119 3 c67 1 126 7 133 14 18 14 17 90 -2 163 -18 69 -56 122 -106 147 -42
22 -124 23 -164 1z"/>
<path d="M9665 592 c-16 -11 -36 -26 -44 -35 -19 -24 -28 -21 -34 13 -6 30 -7
30 -75 30 -39 0 -73 -5 -80 -12 -9 -9 -12 -85 -12 -280 0 -303 -5 -288 85
-288 87 0 85 -6 85 214 0 204 4 222 47 214 36 -7 43 -46 43 -234 0 -206 -5
-194 85 -194 79 0 79 0 72 276 -5 244 -12 280 -56 304 -30 16 -83 12 -116 -8z"/>
<path d="M10385 587 c-82 -46 -125 -147 -125 -292 0 -171 82 -275 219 -275 96
0 161 52 164 133 2 41 1 42 -32 45 -51 5 -74 -4 -93 -38 -35 -62 -98 -27 -101
57 l-2 48 114 3 c64 1 121 8 128 14 31 25 7 187 -38 252 -51 75 -154 98 -234
53z"/>
<path d="M12464 595 c-107 -47 -166 -261 -114 -415 36 -109 102 -160 206 -160
68 0 83 14 78 77 -2 26 -3 51 -4 56 0 4 -14 7 -31 7 -71 0 -99 44 -99 157 0
60 5 86 20 110 24 40 52 55 85 47 20 -5 25 -2 26 12 0 11 2 36 4 56 6 53 -13
68 -83 67 -31 0 -71 -7 -88 -14z"/>
<path d="M13700 599 c-58 -23 -119 -111 -134 -192 -12 -63 -8 -179 8 -230 30
-101 103 -156 204 -157 91 0 151 42 173 124 13 48 4 56 -63 56 -42 0 -48 -3
-67 -35 -39 -67 -101 -36 -104 52 l-2 48 125 5 125 5 3 65 c8 165 -69 271
-195 269 -26 0 -59 -5 -73 -10z"/>
<path d="M14309 592 c-14 -9 -34 -25 -43 -34 -24 -25 -34 -22 -38 10 -3 27 -4
27 -78 27 l-75 0 -3 -282 -2 -283 23 -5 c13 -4 48 -5 78 -3 l54 3 5 196 c5
203 11 229 49 229 38 0 41 -19 41 -217 0 -218 -2 -213 84 -213 81 0 76 -17 76
255 0 257 -5 293 -45 319 -32 21 -94 20 -126 -2z"/>
<path d="M15054 595 c-83 -36 -137 -151 -137 -289 0 -98 13 -150 54 -205 55
-77 173 -105 259 -61 44 22 62 45 80 104 15 47 6 56 -62 56 -42 0 -48 -3 -67
-35 -39 -67 -104 -34 -105 53 l-1 47 123 3 c123 3 123 3 133 29 13 36 -4 149
-33 210 -41 88 -153 128 -244 88z"/>
<path d="M15802 589 c-57 -28 -85 -70 -90 -134 -7 -80 17 -119 105 -174 77
-49 91 -68 73 -101 -15 -28 -52 -35 -88 -16 -17 9 -33 16 -36 16 -8 0 -66 -88
-66 -100 0 -23 102 -60 166 -60 116 0 187 74 187 193 0 73 -16 97 -111 160
-75 49 -87 71 -56 101 19 20 26 20 69 2 30 -13 35 -13 48 2 25 29 46 78 38 90
-26 43 -169 56 -239 21z"/>
<path d="M17225 587 c-84 -48 -131 -166 -123 -312 7 -126 52 -206 137 -241 43
-18 122 -18 164 0 36 14 87 69 87 92 0 8 6 23 13 34 17 28 -3 40 -68 40 -45 0
-52 -3 -67 -30 -36 -63 -89 -49 -108 29 -6 27 -9 55 -5 61 4 6 55 10 131 10
l124 0 0 95 c0 100 -13 138 -63 193 -51 55 -153 68 -222 29z"/>
<path d="M3446 592 c-3 -5 4 -38 15 -73 10 -35 28 -95 39 -134 77 -280 98
-347 114 -357 15 -10 98 -10 113 0 13 8 48 124 67 224 11 59 32 94 39 67 3 -8
21 -75 42 -149 21 -74 43 -138 49 -142 14 -10 98 -10 112 0 7 4 26 57 44 117
17 61 38 133 46 160 8 28 19 66 24 85 5 19 19 66 30 104 31 107 32 106 -50
106 l-69 0 -16 -52 c-8 -29 -25 -94 -38 -145 -16 -70 -26 -93 -37 -91 -8 2
-16 14 -18 28 -5 46 -55 235 -65 248 -7 9 -30 12 -71 10 l-61 -3 -11 -40 c-7
-22 -17 -65 -24 -95 -21 -100 -41 -161 -49 -156 -4 3 -14 34 -21 68 -6 35 -23
100 -36 146 l-25 82 -69 0 c-38 0 -71 -4 -74 -8z"/>
<path d="M4285 589 c-4 -5 -3 -22 3 -37 5 -15 15 -47 22 -72 7 -25 16 -56 21
-70 4 -14 20 -68 34 -120 14 -52 30 -108 35 -125 35 -111 43 -130 53 -137 16
-10 98 -10 114 0 6 4 28 73 48 152 20 80 39 147 41 149 8 9 15 -10 53 -148 22
-78 42 -145 45 -148 13 -13 102 -14 119 -1 15 11 31 60 77 223 4 17 27 95 49
174 23 79 40 150 37 158 -6 14 -112 19 -133 5 -6 -4 -27 -70 -47 -146 -19 -76
-37 -141 -40 -143 -9 -9 -24 38 -52 157 -15 63 -31 121 -36 128 -6 7 -34 12
-69 12 -45 0 -60 -4 -67 -17 -8 -16 -40 -146 -57 -230 -3 -17 -12 -37 -20 -43
-10 -9 -14 -2 -20 32 -4 24 -14 68 -22 98 -8 30 -19 73 -24 95 -6 21 -15 45
-21 52 -13 16 -134 18 -143 2z"/>
<path d="M5126 592 c-5 -8 15 -82 88 -337 24 -83 36 -124 51 -182 4 -13 13
-30 21 -38 20 -20 107 -20 123 -1 7 8 26 72 43 143 17 70 32 134 34 142 7 23
31 -6 39 -47 8 -43 63 -234 70 -240 10 -11 94 -13 113 -3 13 7 26 31 35 63 8
29 43 151 77 270 34 120 59 222 55 228 -8 14 -132 13 -141 -1 -3 -6 -21 -70
-38 -142 -29 -119 -49 -161 -60 -125 -2 7 -16 64 -31 127 -35 154 -33 151
-104 151 -35 0 -62 -5 -68 -12 -5 -7 -18 -49 -28 -93 -35 -161 -41 -180 -56
-180 -8 0 -15 12 -17 30 -5 46 -53 228 -65 243 -11 14 -133 17 -141 4z"/>
<path d="M7204 586 c-3 -8 -4 -115 -2 -238 3 -256 4 -258 92 -303 96 -48 224
-25 282 51 l29 37 0 231 0 231 -75 0 -75 0 -5 -201 c-4 -150 -9 -205 -19 -217
-17 -22 -34 -21 -54 1 -14 15 -17 50 -19 218 l-3 199 -73 3 c-56 2 -74 0 -78
-12z"/>
<path d="M12082 588 c-16 -16 -17 -520 -2 -549 9 -15 21 -19 68 -19 31 0 63 4
70 8 10 7 13 69 13 278 0 148 0 275 -1 282 0 16 -131 17 -148 0z"/>
<path d="M11206 434 c-8 -20 -8 -88 0 -108 5 -14 32 -16 190 -16 l184 0 5 23
c4 13 5 43 3 68 l-3 44 -186 3 c-164 2 -187 0 -193 -14z"/>
<path d="M6041 189 c-25 -25 -31 -39 -31 -74 0 -36 5 -48 31 -69 45 -38 110
-37 150 3 64 65 16 170 -78 171 -33 0 -48 -6 -72 -31z"/>
<path d="M16214 186 c-68 -68 -24 -166 75 -168 102 -1 146 112 69 177 -45 38
-100 35 -144 -9z"/>
</g>
</svg>
